<?xml version="1.0" encoding="utf-8"?>
<!-- Generator: Adobe Illustrator 16.0.0, SVG Export Plug-In . SVG Version: 6.00 Build 0)  -->
<!DOCTYPE svg PUBLIC "-//W3C//DTD SVG 1.1//EN" "http://www.w3.org/Graphics/SVG/1.1/DTD/svg11.dtd">
<svg version="1.1" id="Layer_1" xmlns="http://www.w3.org/2000/svg" xmlns:xlink="http://www.w3.org/1999/xlink" x="0px" y="0px"
	 width="218px" height="172px" viewBox="0 0 218 172" enable-background="new 0 0 218 172" xml:space="preserve">
<g>
	<path fill="#FFFFFF" d="M64.282,96.435l-3.031,2.703l15.565,32.275l88.536-54.834l2.696-6.323L61.319,52.628
		C60.107,67.249,61.102,82.023,64.282,96.435 M141.621,75.492l0.809,2.396l-3.992,1.344c0.349-0.699,0.354-1.591-0.008-2.664
		L141.621,75.492z M104.693,107.079l0.806,2.389c-0.536,0.182-1.161,0.105-1.866-0.259l-0.536-1.593L104.693,107.079z
		 M99.113,111.621c1.243,1.957-1.058,3.914-6.905,5.884l-0.539-1.596L99.113,111.621z M125.383,81.437l0.808,2.395l-3.992,1.345
		C122.901,83.757,123.969,82.511,125.383,81.437 M120.612,88.38l-0.798,0.269l-0.539-1.597l0.797-0.27L120.612,88.38z
		 M88.476,116.984l0.81,2.395l-3.992,1.346c0.347-0.7,0.353-1.593-0.01-2.665L88.476,116.984z M118.664,72.746l0.805,2.39
		c-0.537,0.182-1.16,0.104-1.865-0.26l-0.537-1.594L118.664,72.746z M113.084,77.288c1.244,1.957-1.059,3.914-6.905,5.885
		l-0.539-1.596L113.084,77.288z M72.225,63.862c5.208,0.105,10.696,0.572,16.469,1.388c5.765,0.815,11.941,2.079,18.524,3.784
		l0.15,0.994c-2.938-0.008-5.486-0.069-7.647-0.189c-2.168-0.126-3.926-0.198-5.282-0.213c-0.43-0.056-0.828-0.104-1.248-0.155
		c-0.117,0.212-0.252,0.405-0.412,0.573l-0.434-0.68c-10.214-1.271-17.895-1.952-22.978-2.02c-0.067-0.445-0.231-0.76-0.482-0.943
		c1.068-0.391,2.233-0.906,3.49-1.547L72.225,63.862z"/>
	<path fill="#FFFFFF" d="M216.523,44.564c-0.653-0.215-1.195-0.757-1.629-1.621c0.532-0.269,0.974-0.446,1.473-0.681
		c-1.178-6.968-4.178-13.349-8.51-18.637c-0.568,0.192-0.995,0.195-1.16-0.135c0.426,0.141,0.795,0.151,1.133,0.102
		c-6.859-8.358-17.023-13.964-28.646-14.617l-14.646-0.821l1.705,1.486l-0.684,0.786l-1.957-1.711
		c0.135-0.156,0.209-0.365,0.252-0.6l-28.192-1.582l-0.207,1.585c-4.577-0.593-8.364-1.352-11.513-2.242L93.014,4.141
		c-2.077,3.847-3.198,6.404-3.358,7.66l-0.847-0.11c-0.267-2.709-0.205-5.291,0.096-7.78L47.881,1.608
		c-0.758-0.042-1.512-0.063-2.262-0.063h0c-11.19,0-21.329,4.651-28.612,12.131c-2.602,10.695-4.872,20.105-6.791,28.189
		l-1.912,1.473c0.232-6.592,0.711-12.936,1.308-19.164c-2.23,4.616-3.616,9.726-3.92,15.141l-4.574,81.521
		c-0.348,6.203,0.786,12.139,3.025,17.525c0.042-0.188,0.078-0.352,0.121-0.543l1.687,0.217l-0.427,3.307
		c6.29,12.187,18.645,20.86,33.299,21.684l32.879,1.846l0.444-0.59l0.908,0.665l84.019,4.714
		c-19.58-4.44-36.054-11.043-49.399-19.82l-67.897-3.811c-12.675-0.711-22.375-11.563-21.663-24.24l4.11-73.248
		c-0.474-0.624-0.642-1.485-0.496-2.604l0.618,0.417l0.342-6.084c0.687-12.237,10.825-21.701,22.931-21.701
		c0.434,0,0.87,0.012,1.309,0.037l114.854,6.444l0.329-0.378l0.485,0.424l15.635,0.877c4.229,0.237,8.11,1.622,11.4,3.807
		c3.32-1.214,6.242-2.133,8.662-2.672l0.987,1.942c-1.771,1.288-3.296,3.064-4.577,5.32c3.522,4.297,5.527,9.858,5.191,15.843
		l-0.305,5.438c1.416-0.058,2.931-0.07,4.635,0.007c1.939-0.441,5.729-1.545,11.355-3.293l0.982,1.947
		c-3.674,4.559-9.069,6.203-16.225,4.933c-0.337,0.034-0.633,0.062-0.955,0.094l-4.062,72.395
		c-0.688,12.238-10.825,21.701-22.931,21.701c-0.434,0-0.87-0.012-1.309-0.037l-54.47-3.056c6.9,3.036,13.232,5.827,18.84,8.308
		c9.048,4,16.763,7.395,23.137,10.164l0.498,0.961l11.041,0.619c0.758,0.043,1.512,0.063,2.263,0.063
		c3.511,0,6.907-0.495,10.16-1.351l0.048-0.152l0.25,0.079c16.239-4.407,28.482-18.781,29.469-36.345l4.574-81.521
		c0.127-2.262,0.017-4.479-0.225-6.659C216.614,44.526,216.574,44.544,216.523,44.564z M7.289,57.825l-1.691-0.219l0.108-0.847
		l1.693,0.218L7.289,57.825z M80.351,155.526l-1.889,2.501l-0.513-0.376l0.757-0.999l-1.037-0.755L80.351,155.526z M76.302,158.775
		c0.347,0.253,0.823,0.335,1.406,0.255l-2.265,2.998l-1.029-0.753L76.302,158.775z M55.595,157.595l1.033,0.754l-0.755,1.004
		l-1.033-0.756L55.595,157.595z M39.832,153.045c-5.394,4.33-10.068,5.571-14.011,3.724
		C30.628,152.519,35.302,151.28,39.832,153.045z M12.508,97.2l0.55-4.23l0.845,0.111l-0.219,1.691l1.692,0.215L12.508,97.2z
		 M15.074,90.649c-0.565-0.07-1.174,0.143-1.797,0.63l0.657-5.071l1.693,0.217L15.074,90.649z M16.278,81.349l-1.687-0.217
		l0.327-2.537l1.693,0.218L16.278,81.349z M17.048,75.429c-0.495-0.627-0.662-1.51-0.517-2.646l1.693,0.219
		C17.579,73.497,17.191,74.306,17.048,75.429z M41.44,13.229l-2.537-0.326l0.107-0.846l2.541,0.327L41.44,13.229z M74.524,9.494
		c0.555-2.108,1.111-4.204,1.682-6.257c0.055,1.173,0.1,2.344,0.162,3.517C75.755,7.665,75.144,8.583,74.524,9.494z M145.404,12.17
		l0.833,1.419C145.453,12.905,145.178,12.428,145.404,12.17z M169.09,13.504l-1.175-1.027l0.682-0.783l1.177,1.024L169.09,13.504z
		 M171.492,16.289c-0.033-0.495-0.312-0.966-0.834-1.418c0.486-0.039,0.99,0.175,1.518,0.633L171.492,16.289z M183.286,16.222
		l-0.393-0.343l0.684-0.784l0.394,0.342L183.286,16.222z M202.895,48.195l1.29-2.286c3.89-0.879,7.023-1.647,9.412-2.309
		l0.657,1.298C207.326,47.299,203.536,48.402,202.895,48.195z M162.455,162.019l0.846-0.881c0.24,0.462,0.537,0.744,0.877,0.852
		C163.727,162.231,163.152,162.239,162.455,162.019z M173.4,166.331c-2.198-0.881-5.15-2.096-8.865-3.656l0.328-1.041l2.084,0.656
		c2.084,0.658,4.049,1.092,5.894,1.287c3.124,0.986,4.762,2.461,4.907,4.415C177.054,167.775,175.606,167.226,173.4,166.331z
		 M178.787,168.32l0.332-1.044c0.24,0.464,0.705,0.8,1.395,1.018C180.063,168.533,179.488,168.541,178.787,168.32z"/>
</g>
</svg>
