<?xml version="1.0" encoding="utf-8"?>
<!-- Generator: Adobe Illustrator 16.0.0, SVG Export Plug-In . SVG Version: 6.00 Build 0)  -->
<!DOCTYPE svg PUBLIC "-//W3C//DTD SVG 1.1//EN" "http://www.w3.org/Graphics/SVG/1.1/DTD/svg11.dtd">
<svg version="1.1" id="Layer_1" xmlns="http://www.w3.org/2000/svg" xmlns:xlink="http://www.w3.org/1999/xlink" x="0px" y="0px"
	 width="184px" height="184px" viewBox="0 0 184 184" enable-background="new 0 0 184 184" xml:space="preserve">
<g>
	<circle fill="#FFFFFF" cx="136.491" cy="42.537" r="10.456"/>
	<path fill="#FFFFFF" d="M167.189,79.654c-1.23,0.195-2.322,0.36-3.349,0.514l0.513,9.049l1.443-0.363
		c-0.301,0.449-0.768,0.855-1.396,1.219l1.891,33.389c0.692,12.232-4.728,23.396-13.57,30.6c0.458,0.048,0.935,0.125,1.377,0.146
		c3.175,0.809,4.894,2.188,5.148,4.131c-0.704-0.178-2.181-0.645-4.434-1.412c-1.144-0.385-2.493-0.848-4.04-1.386
		c-3.123,2.216-6.607,3.952-10.363,5.114l0.544,0.917c-0.771-0.12-1.499-0.274-2.26-0.401c-2.272,0.582-4.629,0.967-7.058,1.104
		l-71.092,4.025c-20.257,1.146-37.667-14.397-38.814-34.653L18.892,81.49c-0.547,0.535-0.874,1.306-0.948,2.365
		c-0.53-0.598-0.747-1.469-0.667-2.611l1.607,0.114l-1.178-20.808C16.559,40.294,32.104,22.885,52.36,21.738l71.091-4.025
		c18.836-1.066,35.193,12.306,38.32,30.473c0.52-0.167,1.074-0.364,1.559-0.501l1.096,1.884c-0.805,0.658-1.526,1.461-2.209,2.331
		c0.011,0.158,0.041,0.308,0.05,0.466l1.364,24.094c2.021-0.358,4.402-0.572,7.236-0.606c1.684-0.484,4.861-1.601,9.352-3.263
		l-0.444-7.841c-6.45,2.642-10.022,3.897-10.657,3.73l1.159-2.355c3.833-1.098,6.919-2.042,9.267-2.837l0.164,0.286l-0.688-12.156
		c-1.67-29.493-27.024-52.127-56.516-50.457l-31.6,1.789c0.68,0.626,1.109,1.023,1.109,1.023
		c-3.335,6.603-5.056,10.751-5.175,12.454l-0.852-0.062c-0.728-4.673-0.55-9.053,0.464-13.163l-35.04,1.984
		c-14.892,0.843-28.021,7.735-37.17,18.14c-1.922,10.448-3.599,19.658-5.017,27.607l-1.825,1.579
		c-0.145-6.796-0.017-13.349,0.247-19.782c-4.763,8.558-7.285,18.489-6.691,28.97l4.025,71.095
		c0.432,7.628,2.473,14.78,5.736,21.189l0.072,0.005l-0.008,0.11c7.401,14.449,21.136,24.967,37.33,28.166
		c2.544-2.279,4.732-3.156,6.537-2.523c-0.932,1.137-1.803,2.172-2.648,3.158c3.103,0.376,6.268,0.533,9.496,0.352l71.092-4.025
		c14.622-0.828,27.548-7.488,36.673-17.577l-0.617-0.158l0.27-1.057l1.14,0.291c8.78-10.159,13.812-23.579,12.995-38.013
		l-2.598-45.881C177.152,79.301,172.747,80.32,167.189,79.654z M173.135,43.5c-0.842,0.49-1.383,0.509-1.617,0.1
		C172.164,43.775,172.714,43.744,173.135,43.5z M72.926,8.437c0.121,1.167,0.232,2.333,0.36,3.502
		c-0.561,0.944-1.119,1.895-1.686,2.839C72.035,12.643,72.472,10.518,72.926,8.437z M36.289,19.345l2.555,0.184l-0.063,0.849
		l-2.551-0.182L36.289,19.345z M7.205,66.833l-1.701-0.124l0.06-0.851l1.703,0.122L7.205,66.833z M14.641,105.85l0.31-4.254
		l0.85,0.062l-0.123,1.701l1.702,0.119L14.641,105.85z M16.833,99.164c-0.569-0.038-1.164,0.209-1.759,0.73l0.369-5.101l1.703,0.121
		L16.833,99.164z M17.509,89.811l-1.696-0.121l0.182-2.552l1.703,0.122L17.509,89.811z M31.686,171.367
		c4.559-4.514,9.154-6.014,13.778-4.508C40.323,171.486,35.726,172.99,31.686,171.367z M61.834,172.249l-1.074-0.695l0.697-1.044
		l1.074,0.695L61.834,172.249z M75.409,181.805l-1.072-0.697c0.598-0.116,1.122-0.521,1.584-1.211
		C76.049,180.469,75.878,181.104,75.409,181.805z M78.387,178.506l-1.07-0.693l1.044-1.563l1.07,0.694L78.387,178.506z
		 M81.525,173.814l-1.07-0.693l1.743-2.603c0.36,0.233,0.841,0.288,1.418,0.175L81.525,173.814z M84.313,169.649l-0.533-0.347
		l0.699-1.04l-1.077-0.694l2.655-0.521L84.313,169.649z M149.817,164.39l-0.53-0.134l0.268-1.061l0.531,0.135L149.817,164.39z
		 M160.305,158.607l0.271-1.062c0.266,0.45,0.749,0.759,1.45,0.937C161.59,158.747,161.017,158.787,160.305,158.607z
		 M165.463,160.482l-1.588-0.402l0.27-1.058l1.586,0.403L165.463,160.482z M165.398,145.252l-1.061-0.268l0.268-1.061l1.061,0.268
		L165.398,145.252z"/>
	<path fill="#FFFFFF" d="M63.737,123.45l-0.1,1.378c8.375,7.416,19.553,11.668,31.577,10.986c4.712-0.266,9.201-1.291,13.382-2.914
		c-0.626-0.959-1.268-1.848-1.947-2.604l0.269-1.061c1.88,0.479,3.565,1.25,5.165,2.155c15.35-7.56,25.526-23.781,24.5-41.91
		c-1.101-19.434-14.753-35.211-32.618-39.957c-3.366,3.446-6.016,4.767-7.929,3.921c1.698-1.804,3.215-3.338,4.579-4.646
		c-3.354-0.614-6.815-0.89-10.366-0.688c-24.18,1.369-42.739,22.155-41.37,46.335c0.645,11.384,5.628,21.486,13.21,28.886
		L63.737,123.45z M124.532,116.865c-1.296-0.515-2.588-1.027-3.847-1.549c0.748,0.055,1.498,0.116,2.248,0.168
		C123.469,115.941,124.003,116.403,124.532,116.865z M89.694,59.06l0.823,0.639l-0.639,0.821l-0.822-0.639L89.694,59.06z
		 M79.335,50.35l0.823,0.639c-0.493,0.061-0.947,0.366-1.37,0.913C78.722,51.418,78.908,50.902,79.335,50.35z M76.689,52.906
		l0.823,0.639l-0.959,1.229l-0.82-0.636L76.689,52.906z M73.817,56.604l0.823,0.639l-1.597,2.05
		c-0.276-0.212-0.662-0.289-1.14-0.225L73.817,56.604z M71.265,59.888l0.409,0.32l-0.638,0.821l0.823,0.636l-2.193,0.275
		L71.265,59.888z M91.141,63.874c15.488-0.877,28.802,11.01,29.679,26.5c0.877,15.489-11.01,28.803-26.498,29.68
		c-10.394,0.589-19.788-4.585-25.123-12.723c-1.057,1.426-2.253,2.333-3.627,2.572c0.427-2.538,0.854-4.838,1.279-6.981
		c-1.232-2.901-2.022-6.043-2.211-9.367C63.763,78.064,75.651,64.751,91.141,63.874z"/>
</g>
</svg>
