<?xml version="1.0" encoding="utf-8"?>
<!-- Generator: Adobe Illustrator 16.0.0, SVG Export Plug-In . SVG Version: 6.00 Build 0)  -->
<!DOCTYPE svg PUBLIC "-//W3C//DTD SVG 1.1//EN" "http://www.w3.org/Graphics/SVG/1.1/DTD/svg11.dtd">
<svg version="1.1" id="Layer_1" xmlns="http://www.w3.org/2000/svg" xmlns:xlink="http://www.w3.org/1999/xlink" x="0px" y="0px"
	 width="222px" height="220px" viewBox="0 0 222 220" enable-background="new 0 0 222 220" xml:space="preserve">
<g>
	<path fill="#FFFFFF" d="M195.617,71.271l-33.475,1.722l-1.814-35.269l1.715-13.271l-3.592-23.189l-34.07,1.752L92.009,84.394
		L73.458,95.071l-1.937,13.171l7.553,90.086l19.345-0.994l24.046,13.148l74.721-3.844l23.906-24.602l-5.166-100.423L195.617,71.271z
		 M189.438,114.389l1.104,0.314l-0.318,1.098l-1.098-0.312L189.438,114.389z M186.047,124.123
		c-2.938,7.484-5.281,12.166-7.012,14.051l-1.646-0.475C180.021,128.537,182.908,124.012,186.047,124.123z M183.484,157.895
		l-0.156,0.547l-1.65-0.471l0.16-0.551L183.484,157.895z M125.16,169.68l-0.355-1.773c1.035,0.281,1.746,0.752,2.129,1.418
		C125.939,169.891,125.346,170.006,125.16,169.68z M131.447,23.002c-1.295,3.5-3.098,8.204-5.404,14.123l-1.65-0.474l0.951-3.311
		c0.951-3.31,1.553-6.426,1.785-9.338c1.428-4.966,3.684-7.609,6.756-7.915C133.57,17.187,132.764,19.491,131.447,23.002z
		 M150.277,96.058l1.771-0.352C151.059,96.272,150.461,96.387,150.277,96.058z M157.781,160.541c0.082-0.783,0.172-1.566,0.25-2.348
		c0.496-0.545,0.996-1.088,1.496-1.631C158.949,157.904,158.367,159.236,157.781,160.541z M164.289,123.225
		c2.682-5.18,6.195-7.738,10.539-7.68C171.686,120.984,168.17,123.543,164.289,123.225z M173.014,175.709l-1.104-0.314
		c0.844-2.938,2.188-5.529,4.02-7.771c3.1-3.869,4.803-6.355,5.117-7.453l0.547,0.156c-0.266,5.074-1.891,9.367-4.891,12.877
		C175.295,173.984,174.066,174.82,173.014,175.709z M183.488,200.248l-2.029-0.07c4.619-11.312,8.621-21.084,12.01-29.328
		c3.396-8.246,6.273-15.277,8.621-21.084l1.221-0.676C199.402,169.816,192.797,186.869,183.488,200.248z M197.258,136.865
		c0.48-0.264,0.764-0.58,0.869-0.943c0.266,0.467,0.287,1.066,0.074,1.805L197.258,136.865z M202.42,126.15
		c-0.859,2.326-2.055,5.449-3.59,9.379l-1.096-0.314l0.631-2.197c0.631-2.199,1.033-4.27,1.188-6.205
		c0.945-3.297,2.447-5.051,4.488-5.256C203.83,122.287,203.295,123.816,202.42,126.15z M204.355,120.457l-1.102-0.316
		c0.479-0.26,0.816-0.76,1.023-1.49C204.543,119.117,204.564,119.719,204.355,120.457z M206.012,116.77l-1.104-0.318l0.479-1.646
		l1.096,0.314L206.012,116.77z M206.33,111.508l0.791-2.749c0.367,0.106,0.793,0.024,1.256-0.235l-0.947,3.298L206.33,111.508z
		 M209.914,132.172l-1.1-0.318l0.156-0.551l1.1,0.316L209.914,132.172z M208.691,107.425l-0.545-0.157l0.314-1.1l-1.1-0.312
		l2.121-1.178L208.691,107.425z"/>
	<path fill="#FFFFFF" d="M62.753,94.809l-2.668-11.305L0.908,91.632l11.92,127.084l50.272,0.02l1.246-19.65l0.404-0.02
		L62.753,94.809z M40.045,89.62c-0.665,0.383-1.091,0.395-1.274,0.072C39.281,89.831,39.713,89.809,40.045,89.62z M37.703,107.42
		c3.023-0.849,5.456-1.58,7.307-2.196l0.569,0.994c-5.35,2.168-8.286,3.188-8.798,3.052L37.703,107.42z M17.591,104.569
		c0.732-2.174,1.711-4.494,2.948-6.949c4.815-2.32,8.735-3.902,11.771-4.746l0.855,1.488c-1.802,1.457-3.221,3.586-4.257,6.383
		c2.643-1.514-1.422,2.127-12.205,10.917l-0.565-0.992C16.373,108.778,16.855,106.741,17.591,104.569z M21.126,142.25l-4.459,1.545
		l-1.438-2.516l0.756-0.432c1.292-0.07,3.617-1.064,6.975-2.982c0.355-1.32,0.345-2.314-0.035-2.982
		c-1.152-2.016-4.042-1.814-8.666,0.609c-0.651-0.746-1.14-1.412-1.475-1.998c-0.337-0.59-0.685-1-1.043-1.238
		c0.356-1.32,2.237-1.729,5.647-1.223c1.531-0.434,2.783-0.871,3.755-1.314c0.923-0.42,1.828-0.777,2.722-1.082
		c0.035-0.107,0.08-0.145,0.136-0.047c-0.047,0.016-0.09,0.033-0.136,0.047c-0.159,0.459-0.165,2.67-0.006,6.711l2.982,6.975
		C25.379,142.49,23.47,142.467,21.126,142.25z M31.105,126.994c-0.522-0.139-0.876-0.383-1.063-0.705l4.042-0.992
		C33.606,126.002,32.611,126.568,31.105,126.994z M35.219,118.061c-5.254,0.801-8.141,1.131-8.649,0.994
		c0.703-2.607,4.559-3.926,11.559-3.973c1.507-0.426,4.442-1.445,8.795-3.047l0.852,1.49
		C45.07,117.258,40.895,118.77,35.219,118.061z M45.496,210.895c2.681-5.182,6.194-7.742,10.537-7.68
		C52.892,208.648,49.376,211.209,45.496,210.895z M47.35,105.864c-0.522-0.144-0.97-0.547-1.347-1.209
		c3.971-2.27,6.739-3.189,8.298-2.762C53.162,102.975,50.841,104.299,47.35,105.864z"/>
</g>
</svg>
